<svg id="Layer_1" data-name="Layer 1" xmlns="http://www.w3.org/2000/svg" viewBox="0 0 254.64 160.75"><defs><style>.cls-1{fill:#fff;}</style></defs><path class="cls-1" d="M704.8,464V303.25h55c50.12,0,82.42,34.95,82.42,80.5,0,45.79-32.3,80.25-82.42,80.25Zm116.64-80.25c0-34.71-21.93-62.66-61.69-62.66h-35V446.17h35C798.79,446.17,821.44,418.21,821.44,383.75Z" transform="translate(-587.53 -303.25)"/><path class="cls-1" d="M670,303.25c-50.12,0-82.42,34.95-82.42,80.5,0,45.79,32.3,80.25,82.42,80.25H724.9V303.25ZM704.9,446.17H670c-39,0-61.69-28-61.69-62.42,0-34.71,21.93-62.66,61.69-62.66H704.9Z" transform="translate(-587.53 -303.25)"/></svg>